<svg width="30" height="16" viewBox="0 0 30 16" fill="none" xmlns="http://www.w3.org/2000/svg">
<path d="M22.7095 0.743148C20.1016 0.743148 17.6519 1.93674 15.6183 4.19521C15.4132 4.42925 15.208 4.66914 15.0088 4.92073C14.9092 4.79201 14.8037 4.66329 14.6982 4.53457C14.6454 4.47021 14.5927 4.4117 14.5399 4.34734C14.4872 4.28298 14.4345 4.22447 14.3758 4.16596C14.3231 4.10745 14.2704 4.04894 14.2118 3.99043C14.159 3.93192 14.1004 3.87341 14.0477 3.8149C13.9949 3.75639 13.9363 3.70373 13.8836 3.64522C13.8777 3.63352 13.866 3.62767 13.8601 3.62182C13.8543 3.61597 13.8425 3.60427 13.8308 3.59841C13.3444 3.11864 12.8345 2.69737 12.3071 2.32876C10.7599 1.26973 9.07794 0.731445 7.30221 0.731445C3.27603 0.743147 0 4.1133 0 8.25578C0 9.03396 0.11721 9.78288 0.328189 10.4908C0.515726 11.0993 0.767728 11.6727 1.09006 12.2052C2.37937 14.3408 4.67669 15.7684 7.29634 15.7684C9.90427 15.7684 12.354 14.5748 14.3876 12.3105C14.5927 12.0765 14.7978 11.8366 14.9971 11.585C15.3956 12.0999 15.8234 12.5679 16.2629 12.9951C16.7201 13.4339 17.2006 13.8317 17.6988 14.1711C19.2401 15.2301 20.9279 15.7684 22.7036 15.7684C26.7298 15.7684 30 12.3983 30 8.26163C30.0059 4.1133 26.7357 0.743148 22.7095 0.743148ZM7.7183 12.1818C7.64212 12.1876 7.57179 12.1935 7.50732 12.1993C7.43114 12.2052 7.36081 12.2052 7.30221 12.2052C7.23774 12.2052 7.17327 12.2052 7.10881 12.1993C5.91326 12.135 4.86423 11.4738 4.22543 10.485C3.80934 9.84724 3.56906 9.08076 3.56906 8.24993C3.56906 6.07337 5.24516 4.30053 7.30221 4.30053C8.12854 4.30053 9.9746 4.55797 11.7855 6.59411C11.7972 6.60581 11.8089 6.61751 11.8207 6.63506C11.8617 6.68187 11.8969 6.72283 11.9379 6.76963C11.9789 6.82229 12.0258 6.87495 12.0668 6.92761C12.102 6.96857 12.1313 7.00952 12.1664 7.05048C12.3071 7.22601 12.4419 7.41324 12.5825 7.61802C12.6529 7.71749 12.7173 7.81696 12.7877 7.92227C12.817 7.96908 12.8463 8.01589 12.8756 8.0627C12.9107 8.12121 12.9517 8.17971 12.9869 8.24408C11.0881 11.3919 8.89627 12.0706 7.7183 12.1818ZM22.7095 12.2052C21.8773 12.2052 20.0019 11.936 18.1617 9.81798C18.0211 9.65416 17.8746 9.47863 17.7339 9.2914C17.687 9.22704 17.6402 9.16853 17.5933 9.10417C17.564 9.06321 17.5288 9.0164 17.4995 8.97544C17.4819 8.94619 17.4643 8.91693 17.4409 8.88768C17.3061 8.68875 17.1655 8.47811 17.0365 8.25578C19.1815 4.6984 21.7074 4.30638 22.7154 4.30638C24.7724 4.30638 26.4485 6.07922 26.4485 8.25578C26.4485 10.4323 24.7665 12.2052 22.7095 12.2052Z" fill="white" fill-opacity="0.85"/>
<path d="M10.3102 9.33803C9.88236 10.4088 8.83333 11.1635 7.60848 11.1635C6.0027 11.1635 4.70166 9.86461 4.70166 8.26145C4.70166 6.65829 6.0027 5.35938 7.60848 5.35938C7.86048 5.35938 8.11248 5.39448 8.3469 5.45299C7.89564 5.86841 7.60848 6.45936 7.60848 7.12051C7.60848 8.37262 8.62235 9.38483 9.8765 9.38483C10.023 9.37898 10.1695 9.36143 10.3102 9.33803Z" fill="white" fill-opacity="0.85"/>
<path d="M25.2062 9.33803C24.7784 10.4088 23.7293 11.1635 22.5045 11.1635C20.8987 11.1635 19.5977 9.86461 19.5977 8.26145C19.5977 6.65829 20.8987 5.35938 22.5045 5.35938C22.7565 5.35938 23.0085 5.39448 23.2429 5.45299C22.7916 5.86841 22.5045 6.45936 22.5045 7.12051C22.5045 8.37262 23.5183 9.38483 24.7725 9.38483C24.9249 9.37898 25.0655 9.36143 25.2062 9.33803Z" fill="white" fill-opacity="0.85"/>
</svg>
